<svg version="1.1" xmlns="http://www.w3.org/2000/svg" xmlns:xlink="http://www.w3.org/1999/xlink" width="516" height="548"><defs/><g><text fill="#eeeeee" stroke="none" font-family="Arial" font-size="24px" font-style="normal" font-weight="normal" text-decoration="none" x="0" y="0">UNREGISTERED</text><text fill="#eeeeee" stroke="none" font-family="Arial" font-size="24px" font-style="normal" font-weight="normal" text-decoration="none" x="0" y="30">UNREGISTERED</text><text fill="#eeeeee" stroke="none" font-family="Arial" font-size="24px" font-style="normal" font-weight="normal" text-decoration="none" x="0" y="60">UNREGISTERED</text><text fill="#eeeeee" stroke="none" font-family="Arial" font-size="24px" font-style="normal" font-weight="normal" text-decoration="none" x="0" y="90">UNREGISTERED</text><text fill="#eeeeee" stroke="none" font-family="Arial" font-size="24px" font-style="normal" font-weight="normal" text-decoration="none" x="0" y="120">UNREGISTERED</text><text fill="#eeeeee" stroke="none" font-family="Arial" font-size="24px" font-style="normal" font-weight="normal" text-decoration="none" x="0" y="150">UNREGISTERED</text><text fill="#eeeeee" stroke="none" font-family="Arial" font-size="24px" font-style="normal" font-weight="normal" text-decoration="none" x="0" y="180">UNREGISTERED</text><text fill="#eeeeee" stroke="none" font-family="Arial" font-size="24px" font-style="normal" font-weight="normal" text-decoration="none" x="0" y="210">UNREGISTERED</text><text fill="#eeeeee" stroke="none" font-family="Arial" font-size="24px" font-style="normal" font-weight="normal" text-decoration="none" x="0" y="240">UNREGISTERED</text><text fill="#eeeeee" stroke="none" font-family="Arial" font-size="24px" font-style="normal" font-weight="normal" text-decoration="none" x="0" y="270">UNREGISTERED</text><text fill="#eeeeee" stroke="none" font-family="Arial" font-size="24px" font-style="normal" font-weight="normal" text-decoration="none" x="0" y="300">UNREGISTERED</text><text fill="#eeeeee" stroke="none" font-family="Arial" font-size="24px" font-style="normal" font-weight="normal" text-decoration="none" x="0" y="330">UNREGISTERED</text><text fill="#eeeeee" stroke="none" font-family="Arial" font-size="24px" font-style="normal" font-weight="normal" text-decoration="none" x="0" y="360">UNREGISTERED</text><text fill="#eeeeee" stroke="none" font-family="Arial" font-size="24px" font-style="normal" font-weight="normal" text-decoration="none" x="0" y="390">UNREGISTERED</text><text fill="#eeeeee" stroke="none" font-family="Arial" font-size="24px" font-style="normal" font-weight="normal" text-decoration="none" x="0" y="420">UNREGISTERED</text><text fill="#eeeeee" stroke="none" font-family="Arial" font-size="24px" font-style="normal" font-weight="normal" text-decoration="none" x="0" y="450">UNREGISTERED</text><text fill="#eeeeee" stroke="none" font-family="Arial" font-size="24px" font-style="normal" font-weight="normal" text-decoration="none" x="0" y="480">UNREGISTERED</text><text fill="#eeeeee" stroke="none" font-family="Arial" font-size="24px" font-style="normal" font-weight="normal" text-decoration="none" x="0" y="510">UNREGISTERED</text><text fill="#eeeeee" stroke="none" font-family="Arial" font-size="24px" font-style="normal" font-weight="normal" text-decoration="none" x="0" y="540">UNREGISTERED</text><text fill="#eeeeee" stroke="none" font-family="Arial" font-size="24px" font-style="normal" font-weight="normal" text-decoration="none" x="200" y="0">UNREGISTERED</text><text fill="#eeeeee" stroke="none" font-family="Arial" font-size="24px" font-style="normal" font-weight="normal" text-decoration="none" x="200" y="30">UNREGISTERED</text><text fill="#eeeeee" stroke="none" font-family="Arial" font-size="24px" font-style="normal" font-weight="normal" text-decoration="none" x="200" y="60">UNREGISTERED</text><text fill="#eeeeee" stroke="none" font-family="Arial" font-size="24px" font-style="normal" font-weight="normal" text-decoration="none" x="200" y="90">UNREGISTERED</text><text fill="#eeeeee" stroke="none" font-family="Arial" font-size="24px" font-style="normal" font-weight="normal" text-decoration="none" x="200" y="120">UNREGISTERED</text><text fill="#eeeeee" stroke="none" font-family="Arial" font-size="24px" font-style="normal" font-weight="normal" text-decoration="none" x="200" y="150">UNREGISTERED</text><text fill="#eeeeee" stroke="none" font-family="Arial" font-size="24px" font-style="normal" font-weight="normal" text-decoration="none" x="200" y="180">UNREGISTERED</text><text fill="#eeeeee" stroke="none" font-family="Arial" font-size="24px" font-style="normal" font-weight="normal" text-decoration="none" x="200" y="210">UNREGISTERED</text><text fill="#eeeeee" stroke="none" font-family="Arial" font-size="24px" font-style="normal" font-weight="normal" text-decoration="none" x="200" y="240">UNREGISTERED</text><text fill="#eeeeee" stroke="none" font-family="Arial" font-size="24px" font-style="normal" font-weight="normal" text-decoration="none" x="200" y="270">UNREGISTERED</text><text fill="#eeeeee" stroke="none" font-family="Arial" font-size="24px" font-style="normal" font-weight="normal" text-decoration="none" x="200" y="300">UNREGISTERED</text><text fill="#eeeeee" stroke="none" font-family="Arial" font-size="24px" font-style="normal" font-weight="normal" text-decoration="none" x="200" y="330">UNREGISTERED</text><text fill="#eeeeee" stroke="none" font-family="Arial" font-size="24px" font-style="normal" font-weight="normal" text-decoration="none" x="200" y="360">UNREGISTERED</text><text fill="#eeeeee" stroke="none" font-family="Arial" font-size="24px" font-style="normal" font-weight="normal" text-decoration="none" x="200" y="390">UNREGISTERED</text><text fill="#eeeeee" stroke="none" font-family="Arial" font-size="24px" font-style="normal" font-weight="normal" text-decoration="none" x="200" y="420">UNREGISTERED</text><text fill="#eeeeee" stroke="none" font-family="Arial" font-size="24px" font-style="normal" font-weight="normal" text-decoration="none" x="200" y="450">UNREGISTERED</text><text fill="#eeeeee" stroke="none" font-family="Arial" font-size="24px" font-style="normal" font-weight="normal" text-decoration="none" x="200" y="480">UNREGISTERED</text><text fill="#eeeeee" stroke="none" font-family="Arial" font-size="24px" font-style="normal" font-weight="normal" text-decoration="none" x="200" y="510">UNREGISTERED</text><text fill="#eeeeee" stroke="none" font-family="Arial" font-size="24px" font-style="normal" font-weight="normal" text-decoration="none" x="200" y="540">UNREGISTERED</text><text fill="#eeeeee" stroke="none" font-family="Arial" font-size="24px" font-style="normal" font-weight="normal" text-decoration="none" x="400" y="0">UNREGISTERED</text><text fill="#eeeeee" stroke="none" font-family="Arial" font-size="24px" font-style="normal" font-weight="normal" text-decoration="none" x="400" y="30">UNREGISTERED</text><text fill="#eeeeee" stroke="none" font-family="Arial" font-size="24px" font-style="normal" font-weight="normal" text-decoration="none" x="400" y="60">UNREGISTERED</text><text fill="#eeeeee" stroke="none" font-family="Arial" font-size="24px" font-style="normal" font-weight="normal" text-decoration="none" x="400" y="90">UNREGISTERED</text><text fill="#eeeeee" stroke="none" font-family="Arial" font-size="24px" font-style="normal" font-weight="normal" text-decoration="none" x="400" y="120">UNREGISTERED</text><text fill="#eeeeee" stroke="none" font-family="Arial" font-size="24px" font-style="normal" font-weight="normal" text-decoration="none" x="400" y="150">UNREGISTERED</text><text fill="#eeeeee" stroke="none" font-family="Arial" font-size="24px" font-style="normal" font-weight="normal" text-decoration="none" x="400" y="180">UNREGISTERED</text><text fill="#eeeeee" stroke="none" font-family="Arial" font-size="24px" font-style="normal" font-weight="normal" text-decoration="none" x="400" y="210">UNREGISTERED</text><text fill="#eeeeee" stroke="none" font-family="Arial" font-size="24px" font-style="normal" font-weight="normal" text-decoration="none" x="400" y="240">UNREGISTERED</text><text fill="#eeeeee" stroke="none" font-family="Arial" font-size="24px" font-style="normal" font-weight="normal" text-decoration="none" x="400" y="270">UNREGISTERED</text><text fill="#eeeeee" stroke="none" font-family="Arial" font-size="24px" font-style="normal" font-weight="normal" text-decoration="none" x="400" y="300">UNREGISTERED</text><text fill="#eeeeee" stroke="none" font-family="Arial" font-size="24px" font-style="normal" font-weight="normal" text-decoration="none" x="400" y="330">UNREGISTERED</text><text fill="#eeeeee" stroke="none" font-family="Arial" font-size="24px" font-style="normal" font-weight="normal" text-decoration="none" x="400" y="360">UNREGISTERED</text><text fill="#eeeeee" stroke="none" font-family="Arial" font-size="24px" font-style="normal" font-weight="normal" text-decoration="none" x="400" y="390">UNREGISTERED</text><text fill="#eeeeee" stroke="none" font-family="Arial" font-size="24px" font-style="normal" font-weight="normal" text-decoration="none" x="400" y="420">UNREGISTERED</text><text fill="#eeeeee" stroke="none" font-family="Arial" font-size="24px" font-style="normal" font-weight="normal" text-decoration="none" x="400" y="450">UNREGISTERED</text><text fill="#eeeeee" stroke="none" font-family="Arial" font-size="24px" font-style="normal" font-weight="normal" text-decoration="none" x="400" y="480">UNREGISTERED</text><text fill="#eeeeee" stroke="none" font-family="Arial" font-size="24px" font-style="normal" font-weight="normal" text-decoration="none" x="400" y="510">UNREGISTERED</text><text fill="#eeeeee" stroke="none" font-family="Arial" font-size="24px" font-style="normal" font-weight="normal" text-decoration="none" x="400" y="540">UNREGISTERED</text><g transform="translate(-174,-70) scale(1,1)"><rect fill="#C0C0C0" stroke="none" x="191" y="87" width="198.39999999999998" height="15" opacity="0.2"/></g><g transform="translate(-174,-70) scale(1,1)"><rect fill="#C0C0C0" stroke="none" x="191" y="101" width="496" height="514" opacity="0.2"/></g><g transform="translate(-174,-70) scale(1,1)"><rect fill="#ffffff" stroke="none" x="184" y="95" width="496" height="513"/></g><g transform="translate(-174,-70) scale(1,1)"><path fill="none" stroke="#000000" d="M 184 95 L 680 95 L 680 608 L 184 608 L 184 95 Z Z" stroke-miterlimit="10"/></g><g transform="translate(-174,-70) scale(1,1)"><rect fill="#ffffff" stroke="none" x="184" y="80" width="198.39999999999998" height="15"/></g><g transform="translate(-174,-70) scale(1,1)"><path fill="none" stroke="#000000" d="M 184 80 L 382.4 80 L 382.4 95 L 184 95 L 184 80 Z Z" stroke-miterlimit="10"/></g><g transform="translate(-174,-70) scale(1,1)"><rect fill="#ffffff" stroke="none" x="184" y="94" width="496" height="514"/></g><g transform="translate(-174,-70) scale(1,1)"><path fill="none" stroke="#000000" d="M 184 94 L 680 94 L 680 608 L 184 608 L 184 94 Z Z" stroke-miterlimit="10"/></g><g transform="translate(-174,-70) scale(1,1)"><g><path fill="none" stroke="none"/><text fill="#000000" stroke="none" font-family="Arial" font-size="13px" font-style="normal" font-weight="bold" text-decoration="none" x="430.194091796875" y="108.5">.</text></g></g><g transform="translate(-174,-70) scale(1,1)"><rect fill="#C0C0C0" stroke="none" x="215" y="119" width="76.5390625" height="102" opacity="0.2"/></g><g transform="translate(-174,-70) scale(1,1)"><rect fill="#ffffff" stroke="none" x="208" y="112" width="76.5390625" height="102"/></g><g transform="translate(-174,-70) scale(1,1)"><path fill="none" stroke="#000000" d="M 208 112 L 284.5390625 112 L 284.5390625 214 L 208 214 L 208 112 Z Z" stroke-miterlimit="10"/></g><g transform="translate(-174,-70) scale(1,1)"><path fill="none" stroke="#000000" d="M 208 137 L 284.5390625 137" stroke-miterlimit="10"/></g><g transform="translate(-174,-70) scale(1,1)"><path fill="none" stroke="#000000" d="M 208 205 L 284.5390625 205" stroke-miterlimit="10"/></g><g transform="translate(-174,-70) scale(1,1)"><g><path fill="none" stroke="none"/><text fill="#000000" stroke="none" font-family="Arial" font-size="13px" font-style="normal" font-weight="bold" text-decoration="none" x="228.213623046875" y="130">Client</text></g></g><g transform="translate(-174,-70) scale(1,1)"><g><path fill="none" stroke="none"/><text fill="#000000" stroke="none" font-family="Arial" font-size="13px" font-style="normal" font-weight="normal" text-decoration="none" x="213" y="153">+ID</text></g></g><g transform="translate(-174,-70) scale(1,1)"><g><path fill="none" stroke="none"/><text fill="#000000" stroke="none" font-family="Arial" font-size="13px" font-style="normal" font-weight="normal" text-decoration="none" x="213" y="168">+FirstName</text></g></g><g transform="translate(-174,-70) scale(1,1)"><g><path fill="none" stroke="none"/><text fill="#000000" stroke="none" font-family="Arial" font-size="13px" font-style="normal" font-weight="normal" text-decoration="none" x="213" y="183">+LastName</text></g></g><g transform="translate(-174,-70) scale(1,1)"><g><path fill="none" stroke="none"/><text fill="#000000" stroke="none" font-family="Arial" font-size="13px" font-style="normal" font-weight="normal" text-decoration="none" x="213" y="198">+Adress</text></g></g><g transform="translate(-174,-70) scale(1,1)"><rect fill="#C0C0C0" stroke="none" x="359" y="231" width="111.2607421875" height="132" opacity="0.2"/></g><g transform="translate(-174,-70) scale(1,1)"><rect fill="#ffffff" stroke="none" x="352" y="224" width="111.2607421875" height="132"/></g><g transform="translate(-174,-70) scale(1,1)"><path fill="none" stroke="#000000" d="M 352 224 L 463.2607421875 224 L 463.2607421875 356 L 352 356 L 352 224 Z Z" stroke-miterlimit="10"/></g><g transform="translate(-174,-70) scale(1,1)"><path fill="none" stroke="#000000" d="M 352 249 L 463.2607421875 249" stroke-miterlimit="10"/></g><g transform="translate(-174,-70) scale(1,1)"><path fill="none" stroke="#000000" d="M 352 347 L 463.2607421875 347" stroke-miterlimit="10"/></g><g transform="translate(-174,-70) scale(1,1)"><g><path fill="none" stroke="none"/><text fill="#000000" stroke="none" font-family="Arial" font-size="13px" font-style="normal" font-weight="bold" text-decoration="none" x="381.63037109375" y="242">Account</text></g></g><g transform="translate(-174,-70) scale(1,1)"><g><path fill="none" stroke="none"/><text fill="#000000" stroke="none" font-family="Arial" font-size="13px" font-style="normal" font-weight="normal" text-decoration="none" x="357" y="265">+ID</text></g></g><g transform="translate(-174,-70) scale(1,1)"><g><path fill="none" stroke="none"/><text fill="#000000" stroke="none" font-family="Arial" font-size="13px" font-style="normal" font-weight="normal" text-decoration="none" x="357" y="280">+Type</text></g></g><g transform="translate(-174,-70) scale(1,1)"><g><path fill="none" stroke="none"/><text fill="#000000" stroke="none" font-family="Arial" font-size="13px" font-style="normal" font-weight="normal" text-decoration="none" x="357" y="295">+HolderID</text></g></g><g transform="translate(-174,-70) scale(1,1)"><g><path fill="none" stroke="none"/><text fill="#000000" stroke="none" font-family="Arial" font-size="13px" font-style="normal" font-weight="normal" text-decoration="none" x="357" y="310">+AdvisorID</text></g></g><g transform="translate(-174,-70) scale(1,1)"><g><path fill="none" stroke="none"/><text fill="#000000" stroke="none" font-family="Arial" font-size="13px" font-style="normal" font-weight="normal" text-decoration="none" x="357" y="325">+Balance</text></g></g><g transform="translate(-174,-70) scale(1,1)"><g><path fill="none" stroke="none"/><text fill="#000000" stroke="none" font-family="Arial" font-size="13px" font-style="normal" font-weight="normal" text-decoration="none" x="357" y="340">+interest: nullable</text></g></g><g transform="translate(-174,-70) scale(1,1)"><rect fill="#C0C0C0" stroke="none" x="511" y="143" width="143.04345703125" height="57" opacity="0.2"/></g><g transform="translate(-174,-70) scale(1,1)"><rect fill="#ffffff" stroke="none" x="504" y="136" width="143.04345703125" height="57"/></g><g transform="translate(-174,-70) scale(1,1)"><path fill="none" stroke="#000000" d="M 504 136 L 647.04345703125 136 L 647.04345703125 193 L 504 193 L 504 136 Z Z" stroke-miterlimit="10"/></g><g transform="translate(-174,-70) scale(1,1)"><path fill="none" stroke="#000000" d="M 504 161 L 647.04345703125 161" stroke-miterlimit="10"/></g><g transform="translate(-174,-70) scale(1,1)"><path fill="none" stroke="#000000" d="M 504 184 L 647.04345703125 184" stroke-miterlimit="10"/></g><g transform="translate(-174,-70) scale(1,1)"><g><path fill="none" stroke="none"/><text fill="#000000" stroke="none" font-family="Arial" font-size="13px" font-style="normal" font-weight="bold" text-decoration="none" x="551.3212890625" y="154">Advisor</text></g></g><g transform="translate(-174,-70) scale(1,1)"><g><path fill="none" stroke="none"/><text fill="#000000" stroke="none" font-family="Arial" font-size="13px" font-style="normal" font-weight="normal" text-decoration="none" x="509" y="177">+Les mêmes que client</text></g></g><g transform="translate(-174,-70) scale(1,1)"><rect fill="#C0C0C0" stroke="none" x="247" y="423" width="130.76708984375" height="162" opacity="0.2"/></g><g transform="translate(-174,-70) scale(1,1)"><rect fill="#ffffff" stroke="none" x="240" y="416" width="130.76708984375" height="162"/></g><g transform="translate(-174,-70) scale(1,1)"><path fill="none" stroke="#000000" d="M 240 416 L 370.76708984375 416 L 370.76708984375 578 L 240 578 L 240 416 Z Z" stroke-miterlimit="10"/></g><g transform="translate(-174,-70) scale(1,1)"><path fill="none" stroke="#000000" d="M 240 441 L 370.76708984375 441" stroke-miterlimit="10"/></g><g transform="translate(-174,-70) scale(1,1)"><path fill="none" stroke="#000000" d="M 240 569 L 370.76708984375 569" stroke-miterlimit="10"/></g><g transform="translate(-174,-70) scale(1,1)"><g><path fill="none" stroke="none"/><text fill="#000000" stroke="none" font-family="Arial" font-size="13px" font-style="normal" font-weight="bold" text-decoration="none" x="274.686279296875" y="434">Operation</text></g></g><g transform="translate(-174,-70) scale(1,1)"><g><path fill="none" stroke="none"/><text fill="#000000" stroke="none" font-family="Arial" font-size="13px" font-style="normal" font-weight="normal" text-decoration="none" x="245" y="457">+ID</text></g></g><g transform="translate(-174,-70) scale(1,1)"><g><path fill="none" stroke="none"/><text fill="#000000" stroke="none" font-family="Arial" font-size="13px" font-style="normal" font-weight="normal" text-decoration="none" x="245" y="472">+AccountID</text></g></g><g transform="translate(-174,-70) scale(1,1)"><g><path fill="none" stroke="none"/><text fill="#000000" stroke="none" font-family="Arial" font-size="13px" font-style="normal" font-weight="normal" text-decoration="none" x="245" y="487">+Date</text></g></g><g transform="translate(-174,-70) scale(1,1)"><g><path fill="none" stroke="none"/><text fill="#000000" stroke="none" font-family="Arial" font-size="13px" font-style="normal" font-weight="normal" text-decoration="none" x="245" y="502">+Name</text></g></g><g transform="translate(-174,-70) scale(1,1)"><g><path fill="none" stroke="none"/><text fill="#000000" stroke="none" font-family="Arial" font-size="13px" font-style="normal" font-weight="normal" text-decoration="none" x="245" y="517">+Sum</text></g></g><g transform="translate(-174,-70) scale(1,1)"><g><path fill="none" stroke="none"/><text fill="#000000" stroke="none" font-family="Arial" font-size="13px" font-style="normal" font-weight="normal" text-decoration="none" x="245" y="532">+recurrence: nullable</text></g></g><g transform="translate(-174,-70) scale(1,1)"><g><path fill="none" stroke="none"/><text fill="#000000" stroke="none" font-family="Arial" font-size="13px" font-style="normal" font-weight="normal" text-decoration="none" x="245" y="547">+active: nullable</text></g></g><g transform="translate(-174,-70) scale(1,1)"><g><path fill="none" stroke="none"/><text fill="#000000" stroke="none" font-family="Arial" font-size="13px" font-style="normal" font-weight="normal" text-decoration="none" x="245" y="562">+count: nullable</text></g></g><g transform="translate(-174,-70) scale(1,1)"><path fill="none" stroke="#000000" d="M 345 415 L 374 357" stroke-miterlimit="10"/></g><g transform="translate(-174,-70) scale(1,1)"><path fill="none" stroke="#000000" d="M 286 194 L 351 246" stroke-miterlimit="10"/></g><g transform="translate(-174,-70) scale(1,1)"><path fill="none" stroke="#000000" d="M 535 194 L 464 247" stroke-miterlimit="10"/></g></g></svg>